PathFileType	4	(X/Y/Z)	14_2_73_p0_0-194_filt_butterworth.trc
DataRate	CameraRate	NumFrames	NumMarkers	Units	OrigDataRate	OrigDataStartFrame	OrigNumFrames
59.0	59.0	7	27	m	59.0	48	194
Frame#	Time	RHip			RKnee			RAnkle			RBigToe			RSmallToe			RHeel			LHip			LKnee			LAnkle			LBigToe			LSmallToe			LHeel			Neck			Head			Nose			RShoulder			RElbow			RWrist			RThumb			RIndex			RPinky			LShoulder			LElbow			LWrist			LThumb			LIndex			LPinky			
		X1	Y1	Z1	X2	Y2	Z2	X3	Y3	Z3	X4	Y4	Z4	X5	Y5	Z5	X6	Y6	Z6	X7	Y7	Z7	X8	Y8	Z8	X9	Y9	Z9	X10	Y10	Z10	X11	Y11	Z11	X12	Y12	Z12	X13	Y13	Z13	X14	Y14	Z14	X15	Y15	Z15	X16	Y16	Z16	X17	Y17	Z17	X18	Y18	Z18	X19	Y19	Z19	X20	Y20	Z20	X21	Y21	Z21	X22	Y22	Z22	X23	Y23	Z23	X24	Y24	Z24	X25	Y25	Z25	X26	Y26	Z26	X27	Y27	Z27	
48	0.8135593220338984	0.32153065162021116	0.6688107811356956	0.3140417932422135	0.3270626215942267	0.7922013301215954	0.7182098788559617	0.3111303155281717	0.912296691820532	1.113024599808155	0.25746269246300607	0.6903804274783347	1.1662027709985157	0.33118656258231305	0.722290860462892	1.1611324896512232	0.28797594882608873	1.0008244335454788	1.161561717752184	0.10504450789091214	0.6737565158627014	0.32533896438780724	0.12075025331355568	0.7873447983015702	0.6978588673345332	0.11057419251867552	0.8940341547481229	1.0821545488849489	0.10222872318240352	0.6984012754417889	1.1483440316770421	0.055754803897797564	0.7571248634956133	1.1577402190997526	0.12881971795522973	0.9833141903534953	1.1465759941341556	0.2103273475134812	0.5050919432153264	-0.21353481720407838	0.2275832134613303	0.41567392153821164	-0.43709706849214774	0.21530596756542797	0.37739410148184016	-0.31317129657159715	0.3607066246733126	0.5352814534623104	-0.13043492451660127	0.38950189963526405	0.5636931810668049	0.12232352971597232	0.28993596973080926	0.48152026594638697	0.32495853256464047	0.19188382685578073	0.496348960150879	0.4017617684024487	0.19068688451480625	0.49697157355685256	0.41589340182537066	0.22177490433513733	0.5231494066025376	0.4348390589736449	0.048754007042645486	0.5514256974659941	-0.14365190217982912	0.026719657566492312	0.554055254789244	0.13124617480415662	0.16701346275360063	0.5015153579703644	0.3293637788478369	0.24136499723059213	0.5158186161744227	0.37666769842645426	0.2495427343312277	0.5185725983274211	0.4216657930864144	0.22427425710166554	0.5317440892936063	0.43591108767519854
49	0.8305084745762712	0.3214771467380347	0.668982019921419	0.31415376283493357	0.3270925527995919	0.7921285112168138	0.719472000240824	0.3111441423151726	0.9127539366833718	1.1131549909164518	0.2574118579418985	0.6898117477913938	1.1661100690087518	0.33105440312389695	0.7217798539288512	1.1610475662977808	0.28664578853631945	0.996743651259526	1.160286075260825	0.10548954846068552	0.6737763367942365	0.3250840893944017	0.12011571670370551	0.7896233590522128	0.6983686434898453	0.11063576975761659	0.8939977968212489	1.0820736712602357	0.10210869007271928	0.6966387875115185	1.148271377289404	0.05573500628816413	0.7570886300235962	1.1577275849967812	0.1289076614518488	0.9837179797162009	1.1471321125709522	0.21038297953389862	0.5052152263318102	-0.21259237502035952	0.2275258452216495	0.41595552610118425	-0.4371511493880937	0.21563841559351074	0.37612908027654346	-0.31305779878640794	0.36139655478931487	0.5355158969597477	-0.13046209620849125	0.3878932555410566	0.5595572567924928	0.12365035182627095	0.2888116490469288	0.47855566830749247	0.32473964001956224	0.19292907010522709	0.49634253588876637	0.40220371269495525	0.19071403508509874	0.4948496449186355	0.41593002846281385	0.22144419085494374	0.5264317339281235	0.4351474122403758	0.04877035185864047	0.5514704161688014	-0.14369625388943785	0.027980142093363136	0.5539999101873012	0.13054802084814604	0.1670122842235649	0.5015817487019324	0.3293733453787785	0.24146194791866338	0.5160083843779562	0.3773555102661825	0.24942395637566284	0.5187395165054726	0.42285010469791606	0.22445903565707637	0.5321542319958907	0.4362308809283828
50	0.847457627118644	0.3213916764570869	0.6695313659106604	0.31415254695461753	0.32712172652003557	0.7920603336722751	0.7192463384334882	0.31114415448742727	0.9127610676234014	1.113131746946307	0.25808303894600243	0.6916536903174699	1.1660662803827022	0.3309492110213272	0.7217478002281243	1.1610289421749207	0.2859879761764786	0.9947471541869759	1.1596509759599973	0.10610036175896073	0.6743002103828137	0.3258085336967418	0.11967468904798113	0.7912791720718229	0.6987527777626965	0.11070008746187328	0.8939098865680324	1.0819277551642954	0.10206279584335974	0.6969006314097044	1.1486788427164631	0.05567355119359444	0.757064660274374	1.1577477498634665	0.12880522101942665	0.9839619888611708	1.1479502475370558	0.21040756412742967	0.5052680929069299	-0.21223700776219093	0.22750629115803764	0.4161105498696114	-0.43717172498838264	0.21641944276463118	0.3728186725200608	-0.31272610845245574	0.3618351492447843	0.5356617453946184	-0.1300982911729821	0.38724658280615865	0.5578558624826453	0.12455530446682318	0.28779467343149445	0.4758769665329865	0.324548600781386	0.1944515299037705	0.4993978358068238	0.40224370245876984	0.1913427612828775	0.4952688028113725	0.416179941306991	0.22122777846427777	0.5308637760867894	0.435691224542934	0.048727438668080346	0.5516717073598824	-0.14373418718077896	0.028855644560451067	0.5539555554386025	0.13068805190401203	0.1670400262706932	0.5016231552764412	0.32984176208441734	0.2417563797117943	0.5158527719949992	0.3778850740009591	0.24927671098332604	0.5188017602298627	0.42374961712161485	0.2245524693663969	0.5323064557401469	0.4365988927742749
51	0.864406779661017	0.3214133161191516	0.6696802219081431	0.31363306527412704	0.32713983254444273	0.7919893249852623	0.7185061339532527	0.3110290924195119	0.910775268799963	1.1125010498241448	0.2585769259384925	0.6932416272498091	1.1661000742922516	0.33081523866618634	0.721962536434793	1.161028602832118	0.2859035329403843	0.9945140818134741	1.1595655654637869	0.10669659350230513	0.6749532598906939	0.32687977108765565	0.1195401246787573	0.7919076792535096	0.6989357409563911	0.11071392473891181	0.8938515105236612	1.0818914242764015	0.10205508807311525	0.6975020932690825	1.1489892404599968	0.05561272859916257	0.7570860468294602	1.1577608142166123	0.12868967574214876	0.9839269163292241	1.1487751633246326	0.21041174855777228	0.5052691227877147	-0.21224493360324392	0.2275205323607962	0.41610293434893475	-0.43714941681173974	0.21742432079086665	0.3684182012589017	-0.31219236511259324	0.3619626422459321	0.5357214110664619	-0.12915987799285114	0.38803148030321455	0.5598192927241841	0.12489660642676677	0.28773685455999015	0.4757118870672735	0.32454180334014104	0.19555537682757	0.5026743934243831	0.4022734964490875	0.19183035072882457	0.496282733105889	0.4164572258967478	0.2207546242519935	0.5332718857925771	0.436243847969857	0.04863288878586328	0.552010582784766	-0.14375409680284523	0.02914347768514167	0.5539760018088351	0.13103045192168905	0.16710118163356535	0.501615268809266	0.3308633823867944	0.2425793230715382	0.5152245996321306	0.37837602794701736	0.24917874204516322	0.5188132157430134	0.42409003857341276	0.22416836002476054	0.5311618958928487	0.43661212036522895
52	0.8813559322033898	0.321831440895301	0.66797075510281	0.31229148933385015	0.3271440456843538	0.7919454738273017	0.7180575651396839	0.310714201576851	0.9056107536318345	1.110887915053988	0.25867414610268763	0.6937867921695959	1.166166590196496	0.33068425859488093	0.7219174451813639	1.1609942408381697	0.28600637519443894	0.9948481912954901	1.1596740329230817	0.10726756242541786	0.6748349522386611	0.32784111887859446	0.11952294888864524	0.7920316972202874	0.6990234145713765	0.11059698577284588	0.8939750599981166	1.0823710516433611	0.10205090063016713	0.6978295710301953	1.1491025042582859	0.05558509801496381	0.7571834215062354	1.1577438968841394	0.1285152847166925	0.9835677196661491	1.1491524464326761	0.2104102913120611	0.5052560476848302	-0.2123284639781693	0.2275427273497987	0.41600536601376203	-0.4371008106380486	0.21815197912455314	0.36509758630032607	-0.31149005846985467	0.36197327548123004	0.5357622915407051	-0.12793631717160558	0.38922681427459244	0.5628559577056366	0.12491796036205224	0.28828650093466346	0.47713179147699425	0.3246381545880677	0.1959959779129212	0.5042296685501836	0.402062590635016	0.19199286453862405	0.4967889797328327	0.41674663071904794	0.2196531703059291	0.5322290214751719	0.43654741055155766	0.048616185372051236	0.5520457844877087	-0.1437376718910542	0.029152702148251844	0.5541741977146741	0.13120282242097986	0.16717715338608558	0.5015792109746664	0.3321459332386139	0.24384231689016875	0.5145236123138467	0.37891520712661597	0.24915772206677178	0.5188114870952301	0.42406290152949505	0.22304609472591352	0.5279250815190367	0.4361341032210596
53	0.8983050847457628	0.32282940650392733	0.6634718532922028	0.310528708081963	0.32713991548070404	0.791944238388752	0.7179689533555026	0.31028240393383727	0.8987562274145431	1.108733388164176	0.2585877579260504	0.6937280904135898	1.1662089383481637	0.3306767357575959	0.7215656569961967	1.1609386393266834	0.2860834913993083	0.9951046690416927	1.1597782724810337	0.10796876913460604	0.6728416625590645	0.32879790013738247	0.11948270943763731	0.7919734458561507	0.6990755882867228	0.11030700937411739	0.8943692918495222	1.0836720196883354	0.1020450329035603	0.6978859881390932	1.1490954758391911	0.05557039361450122	0.7573894249755367	1.157822651449107	0.1281978235782627	0.9833863194208734	1.1494492107001983	0.21041150473211223	0.505238564610593	-0.21237492978878705	0.22756217234793968	0.41588572010373565	-0.43704891010443425	0.2183814268274707	0.3638223521474786	-0.3105720798216712	0.3619696017239855	0.5357842046575914	-0.1270234037755066	0.3893653491358937	0.5632081194312446	0.12487367060716292	0.28828819620612667	0.4771145013204826	0.3246129736157347	0.1961271058911577	0.5043345609155215	0.40123409977454294	0.19243099926749851	0.4982622787594364	0.4171793126652136	0.21824984783019083	0.5290739636392071	0.436237474432398	0.04897940593251563	0.5507285375134527	-0.1436455623503454	0.029187051434107558	0.5546340387677943	0.13167551363768737	0.16723256839237768	0.5015455721472475	0.33309177435075515	0.24477319783379783	0.5145978460592538	0.3796387224328166	0.24917583425930814	0.5188057147489078	0.4239550267508977	0.22154030651168566	0.5235602123418606	0.43543919397562086
54	0.9152542372881356	0.32409986708622684	0.6575830067412102	0.3092140536036646	0.32713353048459776	0.791946443392339	0.718016570372451	0.3099455052345916	0.8935759266814357	1.107090430222399	0.2584997893299578	0.6935220959308093	1.1662132129093081	0.3308491768312242	0.7214451951101895	1.1609017988033117	0.286097114969425	0.995181165097702	1.1598201705291142	0.10864675744231223	0.6685573423086945	0.32938207292637184	0.11941084322962191	0.7918812395986657	0.699098587095924	0.10992757024957228	0.8948948292505156	1.0854413480173999	0.10204387887658659	0.697824186212337	1.1490604247740797	0.0554754477570643	0.7576778772712294	1.1583085079332656	0.12780787631103877	0.983699024724366	1.149945261219552	0.2104179107559358	0.5051987447164975	-0.21238629526696534	0.22758458268262272	0.41578114284779877	-0.43700702808484926	0.218360574825417	0.36380198769969113	-0.3095529635054139	0.3619607317864496	0.5357722222540132	-0.12667410315491653	0.38827133020050647	0.5604134438358378	0.124821675757284	0.2877405177810725	0.47566608002801325	0.3244832927684308	0.19634728425682857	0.5039590723883917	0.40013008786433635	0.19339788244324715	0.5013969906492729	0.41773972510766594	0.21739665247968187	0.527292091932629	0.4352681448464771	0.04995543144149056	0.5472547998252277	-0.14344992576923457	0.02930042746544509	0.5552116582341221	0.13266741876714178	0.16725263268071716	0.5015185455112621	0.33344390338992136	0.24498034479250735	0.5158710856808779	0.3803847463077133	0.24920167967377982	0.5187971474493773	0.42390444836816865	0.22037460993993868	0.5201806494086809	0.43500184713796386
